Bending the Rules 2012 DVDRip x264-MiRaGe


Information:
________

IMDB: http://www.imdb.com/title/tt1715320/
rating: PG-13
runtime: 83 min
genre: Action | Drama
release date: 2012
plot: A New Orleans cop on trial for corruption teams up with the Assistant District Attorney who wants to put him away to take down a killer.


General:
________

Complete name : bending-miRaGe.mp4
Format : MPEG-4
Format profile : Base Media / Version 2
Codec ID : mp42
File size : 681 MiB
Duration : 1h 23mn
Overall bit rate : 1 140 Kbps


Video
______

ID : 1
Format : AVC
Format/Info : Advanced Video Codec
Format profile : Main@L3.0
Format settings, CABAC : Yes
Format settings, ReFrames : 4 frames
Format settings, GOP : M=3, N=32
Codec ID : avc1
Codec ID/Info : Advanced Video Coding
Duration : 1h 23mn
Bit rate mode : Variable
Bit rate : 974 Kbps
Width : 720 pixels
Height : 468 pixels
Display aspect ratio : 16:9
Frame rate mode : Variable
Frame rate : 23.976 fps
Minimum frame rate : 19.965 fps
Maximum frame rate : 29.970 fps
Color space : YUV
Chroma subsampling : 4:2:0
Bit depth : 8 bits
Scan type : Progressive
Bits/(Pixel*Frame) : 0.121
Stream size : 582 MiB (85%)
Writing library : x264 core 112


Audio
______

ID : 2
Format : AAC
Format/Info : Advanced Audio Codec
Format profile : LC
Codec ID : 40
Duration : 1h 23mn
Bit rate mode : Variable
Bit rate : 160 Kbps
Maximum bit rate : 323 Kbps
Channel(s) : 2 channels
Channel positions : Front: L R
Sampling rate : 48.0 KHz
Compression mode : Lossy
Stream size : 95.6 MiB (14%)
Language : English


Poster:

 
http://i.imgur.com/NDcsN.jpg


Screenshots:

 
http://i.imgur.com/FFcY2.jpg


ENJOY!